<?xml version='1.0' encoding='UTF-8' standalone='no'?>
<!-- Created with Fritzing (http://www.fritzing.org/) -->
<svg xmlns="http://www.w3.org/2000/svg" width="1.6883in" xmlns:svg="http://www.w3.org/2000/svg" height="2.20997in" viewBox="0 0 121.558 159.118" version="1.2"  baseProfile="tiny" y="0in" x="0in">
 <g transform="matrix(-1, 0, 0, 1, 121.558, 0)">
  <g partID="854830780">
   <g  id="board">
    <rect fill-opacity="0.5" width="120.982" height="158.542" stroke-width="0.5" stroke="black"  id="boardoutline" fill="none" y="0.288" x="0.288"/>
   </g>
  </g>
  <g partID="854873092">
   <g transform="translate(91.6905,123.001)">
    <g transform="matrix(-1,2.77556e-16,-2.77556e-16,-1,0,0)">
     <g  id="copper1">
      <!-- <rect width="55" x="10" y="10" fill="none" height="55" stroke="rgb(255, 191, 0)" stroke-width="20" /> -->
      <circle r="1.98" stroke-width="1.44" cy="2.7" stroke="black"  id="connector0pin" fill="none" cx="2.7"/>
      <circle r="1.98" stroke-width="1.44" cy="2.7" stroke="black"  id="connector1pin" fill="none" cx="24.3"/>
     </g>
    </g>
   </g>
  </g>
  <g partID="854861352">
   <g transform="translate(91.6905,87.0009)">
    <g transform="matrix(-1,2.77556e-16,-2.77556e-16,-1,0,0)">
     <g  id="copper1">
      <!-- <rect width="55" x="10" y="10" fill="none" height="55" stroke="rgb(255, 191, 0)" stroke-width="20" /> -->
      <circle r="1.98" stroke-width="1.44" cy="2.7" stroke="black"  id="connector0pin" fill="none" cx="2.7"/>
      <circle r="1.98" stroke-width="1.44" cy="2.7" stroke="black"  id="connector1pin" fill="none" cx="24.3"/>
     </g>
    </g>
   </g>
  </g>
  <g partID="854860382">
   <g transform="translate(91.6905,115.801)">
    <g transform="matrix(-1,0,0,-1,0,0)">
     <g  id="copper1">
      <!-- <rect width="55" x="10" y="10" fill="none" height="55" stroke="rgb(255, 191, 0)" stroke-width="20" /> -->
      <circle r="1.98" stroke-width="1.44" cy="2.7" stroke="black"  id="connector0pin" fill="none" cx="2.7"/>
      <circle r="1.98" stroke-width="1.44" cy="2.7" stroke="black"  id="connector1pin" fill="none" cx="24.3"/>
     </g>
    </g>
   </g>
  </g>
  <g partID="854777232">
   <g transform="translate(50.2905,9.20488)">
    <g  id="copper1">
     <!-- <rect width="55" x="10" y="15.5" fill="none" height="55" stroke="rgb(255, 191, 0)" stroke-width="20" />  -->
     <circle r="1.98" stroke-width="1.44" cy="3.096" stroke="black"  id="connector0pin" fill="none" cx="2.7"/>
     <circle r="1.98" stroke-width="1.44" cy="3.096" stroke="black"  id="connector1pin" fill="none" cx="31.5"/>
    </g>
   </g>
  </g>
  <g partID="854783082">
   <g transform="translate(119.23,41.1009)">
    <g transform="matrix(-1,0,0,-1,0,0)">
     <g  id="copper1">
      <g  id="copper0">
       <rect width="4.464" height="4.464" stroke-width="1.44" stroke="black"  fill="none" y="12.168" x="6.408"/>
       <circle r="2.232" stroke-width="1.44" cy="14.4" stroke="black"  id="connector0pad" fill="none" cx="8.64"/>
       <circle r="2.232" stroke-width="1.44" cy="14.4" stroke="black"  id="connector1pad" fill="none" cx="15.84"/>
       <circle r="2.232" stroke-width="1.44" cy="14.4" stroke="black"  id="connector2pad" fill="none" cx="23.04"/>
      </g>
     </g>
    </g>
   </g>
  </g>
  <g partID="854836312">
   <g transform="translate(115.63,74.9409)">
    <g transform="matrix(-1,0,0,-1,0,0)">
     <g  id="copper1">
      <g  id="copper0">
       <circle r="2.27905" stroke-width="1.44" cy="5.04" stroke="black"  id="connector0pin" fill="none" cx="5.04"/>
       <circle r="2.27905" stroke-width="1.44" cy="19.44" stroke="black"  id="connector1pin" fill="none" cx="5.04"/>
      </g>
     </g>
    </g>
   </g>
  </g>
  <g partID="854830802">
   <g transform="translate(83.9505,139.741)">
    <g transform="matrix(0,-1,1,0,0,0)">
     <g  id="copper1">
      <g  id="copper0">
       <circle r="2.27905" stroke-width="1.44" cy="5.04" stroke="black"  id="connector0pin" fill="none" cx="5.04"/>
       <circle r="2.27905" stroke-width="1.44" cy="19.44" stroke="black"  id="connector1pin" fill="none" cx="5.04"/>
      </g>
     </g>
    </g>
   </g>
  </g>
  <g partID="854872952">
   <g transform="translate(79.6305,122.461)">
    <g transform="matrix(0,1,-1,0,0,0)">
     <g  id="copper1">
      <g  id="copper0">
       <circle r="2.088" stroke-width="1.44" cy="5.04" stroke="black"  id="connector0pin" fill="none" cx="5.04"/>
       <circle r="2.088" stroke-width="1.44" cy="12.24" stroke="black"  id="connector1pin" fill="none" cx="5.04"/>
      </g>
     </g>
    </g>
   </g>
  </g>
  <g partID="854857232">
   <g transform="translate(79.6305,86.4609)">
    <g transform="matrix(0,1,-1,0,0,0)">
     <g  id="copper1">
      <g  id="copper0">
       <circle r="2.088" stroke-width="1.44" cy="5.04" stroke="black"  id="connector0pin" fill="none" cx="5.04"/>
       <circle r="2.088" stroke-width="1.44" cy="12.24" stroke="black"  id="connector1pin" fill="none" cx="5.04"/>
      </g>
     </g>
    </g>
   </g>
  </g>
  <g partID="854854882">
   <g transform="translate(79.6305,100.861)">
    <g transform="matrix(0,1,-1,0,0,0)">
     <g  id="copper1">
      <g  id="copper0">
       <circle r="2.088" stroke-width="1.44" cy="5.04" stroke="black"  id="connector0pin" fill="none" cx="5.04"/>
       <circle r="2.088" stroke-width="1.44" cy="12.24" stroke="black"  id="connector1pin" fill="none" cx="5.04"/>
      </g>
     </g>
    </g>
   </g>
  </g>
  <g partID="854851232">
   <g transform="translate(62.3505,43.2609)">
    <g  id="copper1">
     <g  id="copper0">
      <circle r="2.088" stroke-width="1.44" cy="5.04" stroke="black"  id="connector0pin" fill="none" cx="5.04"/>
      <circle r="2.088" stroke-width="1.44" cy="12.24" stroke="black"  id="connector1pin" fill="none" cx="5.04"/>
      <circle r="2.088" stroke-width="1.44" cy="19.44" stroke="black"  id="connector2pin" fill="none" cx="5.04"/>
      <circle r="2.088" stroke-width="1.44" cy="26.64" stroke="black"  id="connector3pin" fill="none" cx="5.04"/>
     </g>
    </g>
   </g>
  </g>
  <g partID="854883232">
   <g transform="translate(6.19048,23.1009)">
    <g  id="copper1">
     <g  id="copper0">
      <circle r="1.908" stroke-width="1.224" cy="10.8" stroke="black"  id="connector16pad" fill="none" cx="3.6"/>
      <rect width="3.814" height="3.816" stroke-width="1.224" stroke="black"  fill="none" y="8.892" x="1.692"/>
      <circle r="1.908" stroke-width="1.224" cy="18" stroke="black"  id="connector17pad" fill="none" cx="3.6"/>
      <circle r="1.908" stroke-width="1.224" cy="25.2" stroke="black"  id="connector18pad" fill="none" cx="3.6"/>
      <circle r="1.908" stroke-width="1.224" cy="32.4" stroke="black"  id="connector19pad" fill="none" cx="3.6"/>
      <circle r="1.908" stroke-width="1.224" cy="39.6" stroke="black"  id="connector20pad" fill="none" cx="3.6"/>
      <circle r="1.908" stroke-width="1.224" cy="46.8" stroke="black"  id="connector21pad" fill="none" cx="3.6"/>
      <circle r="1.908" stroke-width="1.224" cy="54" stroke="black"  id="connector22pad" fill="none" cx="3.6"/>
      <circle r="1.908" stroke-width="1.224" cy="61.2" stroke="black"  id="connector23pad" fill="none" cx="3.6"/>
      <circle r="1.908" stroke-width="1.224" cy="68.4" stroke="black"  id="connector24pad" fill="none" cx="3.6"/>
      <circle r="1.908" stroke-width="1.224" cy="75.6" stroke="black"  id="connector25pad" fill="none" cx="3.6"/>
      <circle r="1.908" stroke-width="1.224" cy="82.8" stroke="black"  id="connector26pad" fill="none" cx="3.6"/>
      <circle r="1.908" stroke-width="1.224" cy="90" stroke="black"  id="connector27pad" fill="none" cx="3.6"/>
      <circle r="1.908" stroke-width="1.224" cy="97.2" stroke="black"  id="connector28pad" fill="none" cx="3.6"/>
      <circle r="1.908" stroke-width="1.224" cy="104.4" stroke="black"  id="connector29pad" fill="none" cx="3.6"/>
      <circle r="1.908" stroke-width="1.224" cy="111.6" stroke="black"  id="connector30pad" fill="none" cx="3.6"/>
      <circle r="1.908" stroke-width="1.224" cy="10.8" stroke="black"  id="connector31pad" fill="none" cx="46.8"/>
      <circle r="1.908" stroke-width="1.224" cy="18" stroke="black"  id="connector32pad" fill="none" cx="46.8"/>
      <circle r="1.908" stroke-width="1.224" cy="25.2" stroke="black"  id="connector33pad" fill="none" cx="46.8"/>
      <circle r="1.908" stroke-width="1.224" cy="32.4" stroke="black"  id="connector34pad" fill="none" cx="46.8"/>
      <circle r="1.908" stroke-width="1.224" cy="39.6" stroke="black"  id="connector35pad" fill="none" cx="46.8"/>
      <circle r="1.908" stroke-width="1.224" cy="46.8" stroke="black"  id="connector36pad" fill="none" cx="46.8"/>
      <circle r="1.908" stroke-width="1.224" cy="54" stroke="black"  id="connector37pad" fill="none" cx="46.8"/>
      <circle r="1.908" stroke-width="1.224" cy="61.2" stroke="black"  id="connector38pad" fill="none" cx="46.8"/>
      <circle r="1.908" stroke-width="1.224" cy="68.4" stroke="black"  id="connector39pad" fill="none" cx="46.8"/>
      <circle r="1.908" stroke-width="1.224" cy="75.6" stroke="black"  id="connector40pad" fill="none" cx="46.8"/>
      <circle r="1.908" stroke-width="1.224" cy="82.8" stroke="black"  id="connector41pad" fill="none" cx="46.8"/>
      <circle r="1.908" stroke-width="1.224" cy="90" stroke="black"  id="connector42pad" fill="none" cx="46.8"/>
      <circle r="1.908" stroke-width="1.224" cy="97.2" stroke="black"  id="connector43pad" fill="none" cx="46.8"/>
      <circle r="1.908" stroke-width="1.224" cy="104.4" stroke="black"  id="connector44pad" fill="none" cx="46.8"/>
      <circle r="1.908" stroke-width="1.224" cy="111.6" stroke="black"  id="connector45pad" fill="none" cx="46.8"/>
     </g>
    </g>
   </g>
  </g>
 </g>
</svg>
