<?xml version='1.0' encoding='UTF-8' standalone='no'?>
<!-- Created with Fritzing (http://www.fritzing.org/) -->
<svg xmlns="http://www.w3.org/2000/svg" width="1.6883in" xmlns:svg="http://www.w3.org/2000/svg" height="2.20997in" viewBox="0 0 121.558 159.118" version="1.2"  baseProfile="tiny" y="0in" x="0in">
 <g partID="854830780">
  <g  id="board">
   <rect fill-opacity="0.5" width="120.982" height="158.542" stroke-width="0.5" stroke="black"  id="boardoutline" fill="none" y="0.288" x="0.288"/>
  </g>
 </g>
 <g partID="854873090">
  <g transform="translate(91.6905,123.001)">
   <g transform="matrix(-1,2.77556e-16,-2.77556e-16,-1,0,0)">
    <g  id="copper0">
     <g  id="copper1">
      <!-- <rect width="55" x="10" y="10" fill="none" height="55" stroke="rgb(255, 191, 0)" stroke-width="20" /> -->
      <g r="1.98" stroke-width="1.44" cy="2.7" stroke="black"  id="0" fill="none" cx="2.7"/>
      <g r="1.98" stroke-width="1.44" cy="2.7" stroke="black"  id="1" fill="none" cx="24.3"/>
     </g>
    </g>
   </g>
  </g>
 </g>
 <g partID="854861350">
  <g transform="translate(91.6905,87.0009)">
   <g transform="matrix(-1,2.77556e-16,-2.77556e-16,-1,0,0)">
    <g  id="copper0">
     <g  id="copper1">
      <!-- <rect width="55" x="10" y="10" fill="none" height="55" stroke="rgb(255, 191, 0)" stroke-width="20" /> -->
      <g r="1.98" stroke-width="1.44" cy="2.7" stroke="black"  id="2" fill="none" cx="2.7"/>
      <g r="1.98" stroke-width="1.44" cy="2.7" stroke="black"  id="3" fill="none" cx="24.3"/>
     </g>
    </g>
   </g>
  </g>
 </g>
 <g partID="854860380">
  <g transform="translate(91.6905,115.801)">
   <g transform="matrix(-1,0,0,-1,0,0)">
    <g  id="copper0">
     <g  id="copper1">
      <!-- <rect width="55" x="10" y="10" fill="none" height="55" stroke="rgb(255, 191, 0)" stroke-width="20" /> -->
      <g r="1.98" stroke-width="1.44" cy="2.7" stroke="black"  id="4" fill="none" cx="2.7"/>
      <g r="1.98" stroke-width="1.44" cy="2.7" stroke="black"  id="5" fill="none" cx="24.3"/>
     </g>
    </g>
   </g>
  </g>
 </g>
 <g partID="854777230">
  <g transform="translate(50.2905,9.20488)">
   <g  id="copper0">
    <g  id="copper1">
     <!-- <rect width="55" x="10" y="15.5" fill="none" height="55" stroke="rgb(255, 191, 0)" stroke-width="20" />  -->
     <g r="1.98" stroke-width="1.44" cy="3.096" stroke="black"  id="6" fill="none" cx="2.7"/>
     <g r="1.98" stroke-width="1.44" cy="3.096" stroke="black"  id="7" fill="none" cx="31.5"/>
    </g>
   </g>
  </g>
 </g>
 <g partID="854783080">
  <g transform="translate(119.23,41.1009)">
   <g transform="matrix(-1,0,0,-1,0,0)">
    <g  id="copper0">
     <g width="4.464" height="4.464" stroke-width="1.44" stroke="black"  id="8" fill="none" y="12.168" x="6.408"/>
     <g r="2.232" stroke-width="1.44" cy="14.4" stroke="black"  id="9" fill="none" cx="8.64"/>
     <g r="2.232" stroke-width="1.44" cy="14.4" stroke="black"  id="10" fill="none" cx="15.84"/>
     <g r="2.232" stroke-width="1.44" cy="14.4" stroke="black"  id="11" fill="none" cx="23.04"/>
    </g>
   </g>
  </g>
 </g>
 <g partID="854836310">
  <g transform="translate(115.63,74.9409)">
   <g transform="matrix(-1,0,0,-1,0,0)">
    <g  id="copper0">
     <g r="2.27905" stroke-width="1.44" cy="5.04" stroke="black"  id="12" fill="none" cx="5.04"/>
     <g r="2.27905" stroke-width="1.44" cy="19.44" stroke="black"  id="13" fill="none" cx="5.04"/>
    </g>
   </g>
  </g>
 </g>
 <g partID="854830800">
  <g transform="translate(83.9505,139.741)">
   <g transform="matrix(0,-1,1,0,0,0)">
    <g  id="copper0">
     <g r="2.27905" stroke-width="1.44" cy="5.04" stroke="black"  id="14" fill="none" cx="5.04"/>
     <g r="2.27905" stroke-width="1.44" cy="19.44" stroke="black"  id="15" fill="none" cx="5.04"/>
    </g>
   </g>
  </g>
 </g>
 <g partID="854846750">
  <g transform="translate(108.934,74.4706)">
   <g transform="matrix(1.249e-16,1,-1,1.249e-16,0,0)">
    <g flipped="1" id="copper0">
     <g transform="matrix(-1, 0, 0, 1, 20.1487, 0)">
      <g>
       <g>
        <g>
         <rect width="6.23623" stroke-linecap="round" height="6.80315" stroke-width="0" stroke="none" id="16" fill="black" y="2.14243" x="0" connectorname="C"/>
         <rect width="6.23623" stroke-linecap="round" height="6.80315" stroke-width="0" stroke="none" id="17" fill="black" y="2.14243" x="13.9125" connectorname="A"/>
         <g id="18"/>
        </g>
        <g id="19"/>
       </g>
      </g>
     </g>
    </g>
   </g>
  </g>
 </g>
 <g partID="854872950">
  <g transform="translate(79.6305,122.461)">
   <g transform="matrix(0,1,-1,0,0,0)">
    <g  id="copper0">
     <g r="2.088" stroke-width="1.44" cy="5.04" stroke="black"  id="20" fill="none" cx="5.04"/>
     <g r="2.088" stroke-width="1.44" cy="12.24" stroke="black"  id="21" fill="none" cx="5.04"/>
    </g>
   </g>
  </g>
 </g>
 <g partID="854857230">
  <g transform="translate(79.6305,86.4609)">
   <g transform="matrix(0,1,-1,0,0,0)">
    <g  id="copper0">
     <g r="2.088" stroke-width="1.44" cy="5.04" stroke="black"  id="22" fill="none" cx="5.04"/>
     <g r="2.088" stroke-width="1.44" cy="12.24" stroke="black"  id="23" fill="none" cx="5.04"/>
    </g>
   </g>
  </g>
 </g>
 <g partID="854854880">
  <g transform="translate(79.6305,100.861)">
   <g transform="matrix(0,1,-1,0,0,0)">
    <g  id="copper0">
     <g r="2.088" stroke-width="1.44" cy="5.04" stroke="black"  id="24" fill="none" cx="5.04"/>
     <g r="2.088" stroke-width="1.44" cy="12.24" stroke="black"  id="25" fill="none" cx="5.04"/>
    </g>
   </g>
  </g>
 </g>
 <g partID="854851230">
  <g transform="translate(62.3505,43.2609)">
   <g  id="copper0">
    <g r="2.088" stroke-width="1.44" cy="5.04" stroke="black"  id="26" fill="none" cx="5.04"/>
    <g r="2.088" stroke-width="1.44" cy="12.24" stroke="black"  id="27" fill="none" cx="5.04"/>
    <g r="2.088" stroke-width="1.44" cy="19.44" stroke="black"  id="28" fill="none" cx="5.04"/>
    <g r="2.088" stroke-width="1.44" cy="26.64" stroke="black"  id="29" fill="none" cx="5.04"/>
   </g>
  </g>
 </g>
 <g partID="854883230">
  <g transform="translate(6.19048,23.1009)">
   <g  id="copper0">
    <g r="1.908" stroke-width="1.224" cy="10.8" stroke="black"  id="30" fill="none" cx="3.6"/>
    <g width="3.814" height="3.816" stroke-width="1.224" stroke="black"  id="31" fill="none" y="8.892" x="1.692"/>
    <g r="1.908" stroke-width="1.224" cy="18" stroke="black"  id="32" fill="none" cx="3.6"/>
    <g r="1.908" stroke-width="1.224" cy="25.2" stroke="black"  id="33" fill="none" cx="3.6"/>
    <g r="1.908" stroke-width="1.224" cy="32.4" stroke="black"  id="34" fill="none" cx="3.6"/>
    <g r="1.908" stroke-width="1.224" cy="39.6" stroke="black"  id="35" fill="none" cx="3.6"/>
    <g r="1.908" stroke-width="1.224" cy="46.8" stroke="black"  id="36" fill="none" cx="3.6"/>
    <g r="1.908" stroke-width="1.224" cy="54" stroke="black"  id="37" fill="none" cx="3.6"/>
    <g r="1.908" stroke-width="1.224" cy="61.2" stroke="black"  id="38" fill="none" cx="3.6"/>
    <g r="1.908" stroke-width="1.224" cy="68.4" stroke="black"  id="39" fill="none" cx="3.6"/>
    <g r="1.908" stroke-width="1.224" cy="75.6" stroke="black"  id="40" fill="none" cx="3.6"/>
    <g r="1.908" stroke-width="1.224" cy="82.8" stroke="black"  id="41" fill="none" cx="3.6"/>
    <g r="1.908" stroke-width="1.224" cy="90" stroke="black"  id="42" fill="none" cx="3.6"/>
    <g r="1.908" stroke-width="1.224" cy="97.2" stroke="black"  id="43" fill="none" cx="3.6"/>
    <g r="1.908" stroke-width="1.224" cy="104.4" stroke="black"  id="44" fill="none" cx="3.6"/>
    <g r="1.908" stroke-width="1.224" cy="111.6" stroke="black"  id="45" fill="none" cx="3.6"/>
    <g r="1.908" stroke-width="1.224" cy="10.8" stroke="black"  id="46" fill="none" cx="46.8"/>
    <g r="1.908" stroke-width="1.224" cy="18" stroke="black"  id="47" fill="none" cx="46.8"/>
    <g r="1.908" stroke-width="1.224" cy="25.2" stroke="black"  id="48" fill="none" cx="46.8"/>
    <g r="1.908" stroke-width="1.224" cy="32.4" stroke="black"  id="49" fill="none" cx="46.8"/>
    <g r="1.908" stroke-width="1.224" cy="39.6" stroke="black"  id="50" fill="none" cx="46.8"/>
    <g r="1.908" stroke-width="1.224" cy="46.8" stroke="black"  id="51" fill="none" cx="46.8"/>
    <g r="1.908" stroke-width="1.224" cy="54" stroke="black"  id="52" fill="none" cx="46.8"/>
    <g r="1.908" stroke-width="1.224" cy="61.2" stroke="black"  id="53" fill="none" cx="46.8"/>
    <g r="1.908" stroke-width="1.224" cy="68.4" stroke="black"  id="54" fill="none" cx="46.8"/>
    <g r="1.908" stroke-width="1.224" cy="75.6" stroke="black"  id="55" fill="none" cx="46.8"/>
    <g r="1.908" stroke-width="1.224" cy="82.8" stroke="black"  id="56" fill="none" cx="46.8"/>
    <g r="1.908" stroke-width="1.224" cy="90" stroke="black"  id="57" fill="none" cx="46.8"/>
    <g r="1.908" stroke-width="1.224" cy="97.2" stroke="black"  id="58" fill="none" cx="46.8"/>
    <g r="1.908" stroke-width="1.224" cy="104.4" stroke="black"  id="59" fill="none" cx="46.8"/>
    <g r="1.908" stroke-width="1.224" cy="111.6" stroke="black"  id="60" fill="none" cx="46.8"/>
   </g>
  </g>
 </g>
</svg>
