<?xml version='1.0' encoding='UTF-8' standalone='no'?>
<!-- Created with Fritzing (http://www.fritzing.org/) -->
<svg xmlns="http://www.w3.org/2000/svg" width="1.6883in" xmlns:svg="http://www.w3.org/2000/svg" height="2.20997in" viewBox="0 0 121.558 159.118" version="1.2"  baseProfile="tiny" y="0in" x="0in">
 <g transform="matrix(-1, 0, 0, 1, 121.558, 0)">
  <g partID="854830782">
   <g id="silkscreen0">
    <rect width="120.982" height="158.542" stroke-width="0.576" stroke="black" fill="none" y="0.288" x="0.288"/>
   </g>
  </g>
  <g partID="854830780">
   <g id="board">
    <rect fill-opacity="0.5" width="120.982" height="158.542" stroke-width="0.5" stroke="black" id="boardoutline" fill="none" y="0.288" x="0.288"/>
   </g>
  </g>
  <g partID="854830782">
   <g id="silkscreen0">
    <rect width="120.982" height="158.542" stroke-width="0.576" stroke="black" fill="none" y="0.288" x="0.288"/>
   </g>
  </g>
  <g partID="854846751">
   <g transform="translate(108.934,74.4706)">
    <g transform="matrix(1.249e-16,1,-1,1.249e-16,0,0)">
     <g flipped="1" id="silkscreen0">
      <g transform="matrix(-1, 0, 0, 1, 20.1487, 0)">
       <g>
        <g>
         <g>
          <line stroke-linecap="round" x1="3.66634" y1="0.144" stroke-width="0.288" stroke="black" class="other" x2="16.4824" y2="0.144"/>
          <line stroke-linecap="round" x1="3.66634" y1="10.944" stroke-width="0.288" stroke="black" class="other" x2="16.4824" y2="10.944"/>
          <line stroke-linecap="round" x1="11.897" y1="2.70935" stroke-width="0.576001" stroke="black" class="other" x2="8.00505" y2="5.544"/>
          <line stroke-linecap="round" x1="8.00505" y1="5.544" stroke-width="0.576001" stroke="black" class="other" x2="11.897" y2="8.37865"/>
          <line stroke-linecap="round" x1="11.897" y1="8.37865" stroke-width="0.576001" stroke="black" class="other" x2="11.897" y2="2.70935"/>
          <line stroke-linecap="round" x1="8.00505" y1="2.70935" stroke-width="0.576001" stroke="black" class="other" x2="8.00505" y2="8.37865"/>
         </g>
        </g>
       </g>
      </g>
     </g>
    </g>
   </g>
  </g>
  <g partID="854846750" id="partLabel">
   <g transform="translate(93.3161,73.4009)">
    <g transform="matrix(-1,0,0,1,0,0)">
     <g fill-opacity="1" font-size="5" stroke="none" font-family="'OCRA'" id="silkscreen0Label" font-weight="normal" fill="#000000" font-style="normal">
      <text y="3.75" x="0">D1</text>
     </g>
    </g>
   </g>
  </g>
  <g partID="854873090">
   <g transform="translate(91.6905,123.001)">
    <g transform="matrix(-1,2.77556e-16,-2.77556e-16,-1,0,0)">
     <g id="copper0">
      <g id="copper1">
       <!-- <rect width="55" x="10" y="10" fill="none" height="55" stroke="rgb(255, 191, 0)" stroke-width="20" /> -->
       <circle r="1.98" stroke-width="2.16" cy="2.7" stroke="white" id="connector0pin" fill="white" cx="2.7"/>
       <circle r="1.98" stroke-width="2.16" cy="2.7" stroke="white" id="connector1pin" fill="white" cx="24.3"/>
      </g>
     </g>
    </g>
   </g>
  </g>
  <g partID="854861350">
   <g transform="translate(91.6905,87.0009)">
    <g transform="matrix(-1,2.77556e-16,-2.77556e-16,-1,0,0)">
     <g id="copper0">
      <g id="copper1">
       <!-- <rect width="55" x="10" y="10" fill="none" height="55" stroke="rgb(255, 191, 0)" stroke-width="20" /> -->
       <circle r="1.98" stroke-width="2.16" cy="2.7" stroke="white" id="connector0pin" fill="white" cx="2.7"/>
       <circle r="1.98" stroke-width="2.16" cy="2.7" stroke="white" id="connector1pin" fill="white" cx="24.3"/>
      </g>
     </g>
    </g>
   </g>
  </g>
  <g partID="854860380">
   <g transform="translate(91.6905,115.801)">
    <g transform="matrix(-1,0,0,-1,0,0)">
     <g id="copper0">
      <g id="copper1">
       <!-- <rect width="55" x="10" y="10" fill="none" height="55" stroke="rgb(255, 191, 0)" stroke-width="20" /> -->
       <circle r="1.98" stroke-width="2.16" cy="2.7" stroke="white" id="connector0pin" fill="white" cx="2.7"/>
       <circle r="1.98" stroke-width="2.16" cy="2.7" stroke="white" id="connector1pin" fill="white" cx="24.3"/>
      </g>
     </g>
    </g>
   </g>
  </g>
  <g partID="854777230">
   <g transform="translate(50.2905,9.20488)">
    <g id="copper0">
     <g id="copper1">
      <!-- <rect width="55" x="10" y="15.5" fill="none" height="55" stroke="rgb(255, 191, 0)" stroke-width="20" />  -->
      <circle r="1.98" stroke-width="2.16" cy="3.096" stroke="white" id="connector0pin" fill="white" cx="2.7"/>
      <circle r="1.98" stroke-width="2.16" cy="3.096" stroke="white" id="connector1pin" fill="white" cx="31.5"/>
     </g>
    </g>
   </g>
  </g>
  <g partID="854783080">
   <g transform="translate(119.23,41.1009)">
    <g transform="matrix(-1,0,0,-1,0,0)">
     <g id="copper0">
      <rect width="4.464" height="4.464" stroke-width="2.16" stroke="white" fill="white" y="12.168" x="6.408"/>
      <circle r="2.232" stroke-width="2.16" cy="14.4" stroke="white" id="connector0pad" fill="white" cx="8.64"/>
      <circle r="2.232" stroke-width="2.16" cy="14.4" stroke="white" id="connector1pad" fill="white" cx="15.84"/>
      <circle r="2.232" stroke-width="2.16" cy="14.4" stroke="white" id="connector2pad" fill="white" cx="23.04"/>
     </g>
    </g>
   </g>
  </g>
  <g partID="854836310">
   <g transform="translate(115.63,74.9409)">
    <g transform="matrix(-1,0,0,-1,0,0)">
     <g id="copper0">
      <circle r="2.27905" stroke-width="2.16" cy="5.04" stroke="white" id="connector0pin" fill="white" cx="5.04"/>
      <circle r="2.27905" stroke-width="2.16" cy="19.44" stroke="white" id="connector1pin" fill="white" cx="5.04"/>
     </g>
    </g>
   </g>
  </g>
  <g partID="854830800">
   <g transform="translate(83.9505,139.741)">
    <g transform="matrix(0,-1,1,0,0,0)">
     <g id="copper0">
      <circle r="2.27905" stroke-width="2.16" cy="5.04" stroke="white" id="connector0pin" fill="white" cx="5.04"/>
      <circle r="2.27905" stroke-width="2.16" cy="19.44" stroke="white" id="connector1pin" fill="white" cx="5.04"/>
     </g>
    </g>
   </g>
  </g>
  <g partID="854846750">
   <g transform="translate(108.934,74.4706)">
    <g transform="matrix(1.249e-16,1,-1,1.249e-16,0,0)">
     <g flipped="1" id="copper0">
      <g transform="matrix(-1, 0, 0, 1, 20.1487, 0)">
       <g>
        <g>
         <g>
          <rect width="6.23623" stroke-linecap="round" height="6.80315" stroke-width="0.72" stroke="white" id="connector1pad" fill="white" y="2.14243" x="0" connectorname="C"/>
          <rect width="6.23623" stroke-linecap="round" height="6.80315" stroke-width="0.72" stroke="white" id="connector0pad" fill="white" y="2.14243" x="13.9125" connectorname="A"/>
          <g id="copper0"/>
         </g>
         <g/>
        </g>
       </g>
      </g>
     </g>
    </g>
   </g>
  </g>
  <g partID="854872950">
   <g transform="translate(79.6305,122.461)">
    <g transform="matrix(0,1,-1,0,0,0)">
     <g id="copper0">
      <circle r="2.088" stroke-width="2.16" cy="5.04" stroke="white" id="connector0pin" fill="white" cx="5.04"/>
      <circle r="2.088" stroke-width="2.16" cy="12.24" stroke="white" id="connector1pin" fill="white" cx="5.04"/>
     </g>
    </g>
   </g>
  </g>
  <g partID="854857230">
   <g transform="translate(79.6305,86.4609)">
    <g transform="matrix(0,1,-1,0,0,0)">
     <g id="copper0">
      <circle r="2.088" stroke-width="2.16" cy="5.04" stroke="white" id="connector0pin" fill="white" cx="5.04"/>
      <circle r="2.088" stroke-width="2.16" cy="12.24" stroke="white" id="connector1pin" fill="white" cx="5.04"/>
     </g>
    </g>
   </g>
  </g>
  <g partID="854854880">
   <g transform="translate(79.6305,100.861)">
    <g transform="matrix(0,1,-1,0,0,0)">
     <g id="copper0">
      <circle r="2.088" stroke-width="2.16" cy="5.04" stroke="white" id="connector0pin" fill="white" cx="5.04"/>
      <circle r="2.088" stroke-width="2.16" cy="12.24" stroke="white" id="connector1pin" fill="white" cx="5.04"/>
     </g>
    </g>
   </g>
  </g>
  <g partID="854851230">
   <g transform="translate(62.3505,43.2609)">
    <g id="copper0">
     <circle r="2.088" stroke-width="2.16" cy="5.04" stroke="white" id="connector0pin" fill="white" cx="5.04"/>
     <circle r="2.088" stroke-width="2.16" cy="12.24" stroke="white" id="connector1pin" fill="white" cx="5.04"/>
     <circle r="2.088" stroke-width="2.16" cy="19.44" stroke="white" id="connector2pin" fill="white" cx="5.04"/>
     <circle r="2.088" stroke-width="2.16" cy="26.64" stroke="white" id="connector3pin" fill="white" cx="5.04"/>
    </g>
   </g>
  </g>
  <g partID="854883230">
   <g transform="translate(6.19048,23.1009)">
    <g id="copper0">
     <circle r="1.908" stroke-width="1.944" cy="10.8" stroke="white" id="connector16pad" fill="white" cx="3.6"/>
     <rect width="3.814" height="3.816" stroke-width="1.944" stroke="white" fill="white" y="8.892" x="1.692"/>
     <circle r="1.908" stroke-width="1.944" cy="18" stroke="white" id="connector17pad" fill="white" cx="3.6"/>
     <circle r="1.908" stroke-width="1.944" cy="25.2" stroke="white" id="connector18pad" fill="white" cx="3.6"/>
     <circle r="1.908" stroke-width="1.944" cy="32.4" stroke="white" id="connector19pad" fill="white" cx="3.6"/>
     <circle r="1.908" stroke-width="1.944" cy="39.6" stroke="white" id="connector20pad" fill="white" cx="3.6"/>
     <circle r="1.908" stroke-width="1.944" cy="46.8" stroke="white" id="connector21pad" fill="white" cx="3.6"/>
     <circle r="1.908" stroke-width="1.944" cy="54" stroke="white" id="connector22pad" fill="white" cx="3.6"/>
     <circle r="1.908" stroke-width="1.944" cy="61.2" stroke="white" id="connector23pad" fill="white" cx="3.6"/>
     <circle r="1.908" stroke-width="1.944" cy="68.4" stroke="white" id="connector24pad" fill="white" cx="3.6"/>
     <circle r="1.908" stroke-width="1.944" cy="75.6" stroke="white" id="connector25pad" fill="white" cx="3.6"/>
     <circle r="1.908" stroke-width="1.944" cy="82.8" stroke="white" id="connector26pad" fill="white" cx="3.6"/>
     <circle r="1.908" stroke-width="1.944" cy="90" stroke="white" id="connector27pad" fill="white" cx="3.6"/>
     <circle r="1.908" stroke-width="1.944" cy="97.2" stroke="white" id="connector28pad" fill="white" cx="3.6"/>
     <circle r="1.908" stroke-width="1.944" cy="104.4" stroke="white" id="connector29pad" fill="white" cx="3.6"/>
     <circle r="1.908" stroke-width="1.944" cy="111.6" stroke="white" id="connector30pad" fill="white" cx="3.6"/>
     <circle r="1.908" stroke-width="1.944" cy="10.8" stroke="white" id="connector31pad" fill="white" cx="46.8"/>
     <circle r="1.908" stroke-width="1.944" cy="18" stroke="white" id="connector32pad" fill="white" cx="46.8"/>
     <circle r="1.908" stroke-width="1.944" cy="25.2" stroke="white" id="connector33pad" fill="white" cx="46.8"/>
     <circle r="1.908" stroke-width="1.944" cy="32.4" stroke="white" id="connector34pad" fill="white" cx="46.8"/>
     <circle r="1.908" stroke-width="1.944" cy="39.6" stroke="white" id="connector35pad" fill="white" cx="46.8"/>
     <circle r="1.908" stroke-width="1.944" cy="46.8" stroke="white" id="connector36pad" fill="white" cx="46.8"/>
     <circle r="1.908" stroke-width="1.944" cy="54" stroke="white" id="connector37pad" fill="white" cx="46.8"/>
     <circle r="1.908" stroke-width="1.944" cy="61.2" stroke="white" id="connector38pad" fill="white" cx="46.8"/>
     <circle r="1.908" stroke-width="1.944" cy="68.4" stroke="white" id="connector39pad" fill="white" cx="46.8"/>
     <circle r="1.908" stroke-width="1.944" cy="75.6" stroke="white" id="connector40pad" fill="white" cx="46.8"/>
     <circle r="1.908" stroke-width="1.944" cy="82.8" stroke="white" id="connector41pad" fill="white" cx="46.8"/>
     <circle r="1.908" stroke-width="1.944" cy="90" stroke="white" id="connector42pad" fill="white" cx="46.8"/>
     <circle r="1.908" stroke-width="1.944" cy="97.2" stroke="white" id="connector43pad" fill="white" cx="46.8"/>
     <circle r="1.908" stroke-width="1.944" cy="104.4" stroke="white" id="connector44pad" fill="white" cx="46.8"/>
     <circle r="1.908" stroke-width="1.944" cy="111.6" stroke="white" id="connector45pad" fill="white" cx="46.8"/>
    </g>
   </g>
  </g>
 </g>
</svg>
