<?xml version='1.0' encoding='UTF-8' standalone='no'?>
<!-- Created with Fritzing (http://www.fritzing.org/) -->
<svg xmlns="http://www.w3.org/2000/svg" width="1.6883in" xmlns:svg="http://www.w3.org/2000/svg" height="2.20997in" viewBox="0 0 121.558 159.118" version="1.2"  baseProfile="tiny" y="0in" x="0in">
 <g partID="854830780">
  <g  id="board">
   <rect fill-opacity="0.5" width="120.982" height="158.542" stroke-width="0.5" stroke="black"  id="boardoutline" fill="none" y="0.288" x="0.288"/>
  </g>
 </g>
 <g partID="854873090">
  <g transform="translate(91.6905,123.001)">
   <g transform="matrix(-1,2.77556e-16,-2.77556e-16,-1,0,0)">
    <g  id="copper0">
     <g  id="copper1">
      <!-- <rect width="55" x="10" y="10" fill="none" height="55" stroke="rgb(255, 191, 0)" stroke-width="20" /> -->
      <circle r="1.98" stroke-width="1.44" cy="2.7" stroke="black"  id="connector0pin" fill="none" cx="2.7"/>
      <circle r="1.98" stroke-width="1.44" cy="2.7" stroke="black"  id="connector1pin" fill="none" cx="24.3"/>
     </g>
    </g>
   </g>
  </g>
 </g>
 <g partID="854861350">
  <g transform="translate(91.6905,87.0009)">
   <g transform="matrix(-1,2.77556e-16,-2.77556e-16,-1,0,0)">
    <g  id="copper0">
     <g  id="copper1">
      <!-- <rect width="55" x="10" y="10" fill="none" height="55" stroke="rgb(255, 191, 0)" stroke-width="20" /> -->
      <circle r="1.98" stroke-width="1.44" cy="2.7" stroke="black"  id="connector0pin" fill="none" cx="2.7"/>
      <circle r="1.98" stroke-width="1.44" cy="2.7" stroke="black"  id="connector1pin" fill="none" cx="24.3"/>
     </g>
    </g>
   </g>
  </g>
 </g>
 <g partID="854860380">
  <g transform="translate(91.6905,115.801)">
   <g transform="matrix(-1,0,0,-1,0,0)">
    <g  id="copper0">
     <g  id="copper1">
      <!-- <rect width="55" x="10" y="10" fill="none" height="55" stroke="rgb(255, 191, 0)" stroke-width="20" /> -->
      <circle r="1.98" stroke-width="1.44" cy="2.7" stroke="black"  id="connector0pin" fill="none" cx="2.7"/>
      <circle r="1.98" stroke-width="1.44" cy="2.7" stroke="black"  id="connector1pin" fill="none" cx="24.3"/>
     </g>
    </g>
   </g>
  </g>
 </g>
 <g partID="854777230">
  <g transform="translate(50.2905,9.20488)">
   <g  id="copper0">
    <g  id="copper1">
     <!-- <rect width="55" x="10" y="15.5" fill="none" height="55" stroke="rgb(255, 191, 0)" stroke-width="20" />  -->
     <circle r="1.98" stroke-width="1.44" cy="3.096" stroke="black"  id="connector0pin" fill="none" cx="2.7"/>
     <circle r="1.98" stroke-width="1.44" cy="3.096" stroke="black"  id="connector1pin" fill="none" cx="31.5"/>
    </g>
   </g>
  </g>
 </g>
 <g partID="854783080">
  <g transform="translate(119.23,41.1009)">
   <g transform="matrix(-1,0,0,-1,0,0)">
    <g  id="copper0">
     <rect width="4.464" height="4.464" stroke-width="1.44" stroke="black"  fill="none" y="12.168" x="6.408"/>
     <circle r="2.232" stroke-width="1.44" cy="14.4" stroke="black"  id="connector0pad" fill="none" cx="8.64"/>
     <circle r="2.232" stroke-width="1.44" cy="14.4" stroke="black"  id="connector1pad" fill="none" cx="15.84"/>
     <circle r="2.232" stroke-width="1.44" cy="14.4" stroke="black"  id="connector2pad" fill="none" cx="23.04"/>
    </g>
   </g>
  </g>
 </g>
 <g partID="854836310">
  <g transform="translate(115.63,74.9409)">
   <g transform="matrix(-1,0,0,-1,0,0)">
    <g  id="copper0">
     <circle r="2.27905" stroke-width="1.44" cy="5.04" stroke="black"  id="connector0pin" fill="none" cx="5.04"/>
     <circle r="2.27905" stroke-width="1.44" cy="19.44" stroke="black"  id="connector1pin" fill="none" cx="5.04"/>
    </g>
   </g>
  </g>
 </g>
 <g partID="854830800">
  <g transform="translate(83.9505,139.741)">
   <g transform="matrix(0,-1,1,0,0,0)">
    <g  id="copper0">
     <circle r="2.27905" stroke-width="1.44" cy="5.04" stroke="black"  id="connector0pin" fill="none" cx="5.04"/>
     <circle r="2.27905" stroke-width="1.44" cy="19.44" stroke="black"  id="connector1pin" fill="none" cx="5.04"/>
    </g>
   </g>
  </g>
 </g>
 <g partID="854846750">
  <g transform="translate(108.934,74.4706)">
   <g transform="matrix(1.249e-16,1,-1,1.249e-16,0,0)">
    <g flipped="1" id="copper0">
     <g transform="matrix(-1, 0, 0, 1, 20.1487, 0)">
      <g>
       <g>
        <g>
         <rect width="6.23623" stroke-linecap="round" height="6.80315" stroke-width="0" stroke="none" id="connector1pad" fill="black" y="2.14243" x="0" connectorname="C"/>
         <rect width="6.23623" stroke-linecap="round" height="6.80315" stroke-width="0" stroke="none" id="connector0pad" fill="black" y="2.14243" x="13.9125" connectorname="A"/>
         <g id="copper0"/>
        </g>
        <g/>
       </g>
      </g>
     </g>
    </g>
   </g>
  </g>
 </g>
 <g partID="854872950">
  <g transform="translate(79.6305,122.461)">
   <g transform="matrix(0,1,-1,0,0,0)">
    <g  id="copper0">
     <circle r="2.088" stroke-width="1.44" cy="5.04" stroke="black"  id="connector0pin" fill="none" cx="5.04"/>
     <circle r="2.088" stroke-width="1.44" cy="12.24" stroke="black"  id="connector1pin" fill="none" cx="5.04"/>
    </g>
   </g>
  </g>
 </g>
 <g partID="854857230">
  <g transform="translate(79.6305,86.4609)">
   <g transform="matrix(0,1,-1,0,0,0)">
    <g  id="copper0">
     <circle r="2.088" stroke-width="1.44" cy="5.04" stroke="black"  id="connector0pin" fill="none" cx="5.04"/>
     <circle r="2.088" stroke-width="1.44" cy="12.24" stroke="black"  id="connector1pin" fill="none" cx="5.04"/>
    </g>
   </g>
  </g>
 </g>
 <g partID="854854880">
  <g transform="translate(79.6305,100.861)">
   <g transform="matrix(0,1,-1,0,0,0)">
    <g  id="copper0">
     <circle r="2.088" stroke-width="1.44" cy="5.04" stroke="black"  id="connector0pin" fill="none" cx="5.04"/>
     <circle r="2.088" stroke-width="1.44" cy="12.24" stroke="black"  id="connector1pin" fill="none" cx="5.04"/>
    </g>
   </g>
  </g>
 </g>
 <g partID="854851230">
  <g transform="translate(62.3505,43.2609)">
   <g  id="copper0">
    <circle r="2.088" stroke-width="1.44" cy="5.04" stroke="black"  id="connector0pin" fill="none" cx="5.04"/>
    <circle r="2.088" stroke-width="1.44" cy="12.24" stroke="black"  id="connector1pin" fill="none" cx="5.04"/>
    <circle r="2.088" stroke-width="1.44" cy="19.44" stroke="black"  id="connector2pin" fill="none" cx="5.04"/>
    <circle r="2.088" stroke-width="1.44" cy="26.64" stroke="black"  id="connector3pin" fill="none" cx="5.04"/>
   </g>
  </g>
 </g>
 <g partID="854883230">
  <g transform="translate(6.19048,23.1009)">
   <g  id="copper0">
    <circle r="1.908" stroke-width="1.224" cy="10.8" stroke="black"  id="connector16pad" fill="none" cx="3.6"/>
    <rect width="3.814" height="3.816" stroke-width="1.224" stroke="black"  fill="none" y="8.892" x="1.692"/>
    <circle r="1.908" stroke-width="1.224" cy="18" stroke="black"  id="connector17pad" fill="none" cx="3.6"/>
    <circle r="1.908" stroke-width="1.224" cy="25.2" stroke="black"  id="connector18pad" fill="none" cx="3.6"/>
    <circle r="1.908" stroke-width="1.224" cy="32.4" stroke="black"  id="connector19pad" fill="none" cx="3.6"/>
    <circle r="1.908" stroke-width="1.224" cy="39.6" stroke="black"  id="connector20pad" fill="none" cx="3.6"/>
    <circle r="1.908" stroke-width="1.224" cy="46.8" stroke="black"  id="connector21pad" fill="none" cx="3.6"/>
    <circle r="1.908" stroke-width="1.224" cy="54" stroke="black"  id="connector22pad" fill="none" cx="3.6"/>
    <circle r="1.908" stroke-width="1.224" cy="61.2" stroke="black"  id="connector23pad" fill="none" cx="3.6"/>
    <circle r="1.908" stroke-width="1.224" cy="68.4" stroke="black"  id="connector24pad" fill="none" cx="3.6"/>
    <circle r="1.908" stroke-width="1.224" cy="75.6" stroke="black"  id="connector25pad" fill="none" cx="3.6"/>
    <circle r="1.908" stroke-width="1.224" cy="82.8" stroke="black"  id="connector26pad" fill="none" cx="3.6"/>
    <circle r="1.908" stroke-width="1.224" cy="90" stroke="black"  id="connector27pad" fill="none" cx="3.6"/>
    <circle r="1.908" stroke-width="1.224" cy="97.2" stroke="black"  id="connector28pad" fill="none" cx="3.6"/>
    <circle r="1.908" stroke-width="1.224" cy="104.4" stroke="black"  id="connector29pad" fill="none" cx="3.6"/>
    <circle r="1.908" stroke-width="1.224" cy="111.6" stroke="black"  id="connector30pad" fill="none" cx="3.6"/>
    <circle r="1.908" stroke-width="1.224" cy="10.8" stroke="black"  id="connector31pad" fill="none" cx="46.8"/>
    <circle r="1.908" stroke-width="1.224" cy="18" stroke="black"  id="connector32pad" fill="none" cx="46.8"/>
    <circle r="1.908" stroke-width="1.224" cy="25.2" stroke="black"  id="connector33pad" fill="none" cx="46.8"/>
    <circle r="1.908" stroke-width="1.224" cy="32.4" stroke="black"  id="connector34pad" fill="none" cx="46.8"/>
    <circle r="1.908" stroke-width="1.224" cy="39.6" stroke="black"  id="connector35pad" fill="none" cx="46.8"/>
    <circle r="1.908" stroke-width="1.224" cy="46.8" stroke="black"  id="connector36pad" fill="none" cx="46.8"/>
    <circle r="1.908" stroke-width="1.224" cy="54" stroke="black"  id="connector37pad" fill="none" cx="46.8"/>
    <circle r="1.908" stroke-width="1.224" cy="61.2" stroke="black"  id="connector38pad" fill="none" cx="46.8"/>
    <circle r="1.908" stroke-width="1.224" cy="68.4" stroke="black"  id="connector39pad" fill="none" cx="46.8"/>
    <circle r="1.908" stroke-width="1.224" cy="75.6" stroke="black"  id="connector40pad" fill="none" cx="46.8"/>
    <circle r="1.908" stroke-width="1.224" cy="82.8" stroke="black"  id="connector41pad" fill="none" cx="46.8"/>
    <circle r="1.908" stroke-width="1.224" cy="90" stroke="black"  id="connector42pad" fill="none" cx="46.8"/>
    <circle r="1.908" stroke-width="1.224" cy="97.2" stroke="black"  id="connector43pad" fill="none" cx="46.8"/>
    <circle r="1.908" stroke-width="1.224" cy="104.4" stroke="black"  id="connector44pad" fill="none" cx="46.8"/>
    <circle r="1.908" stroke-width="1.224" cy="111.6" stroke="black"  id="connector45pad" fill="none" cx="46.8"/>
   </g>
  </g>
 </g>
 <g partID="854853890">
  <line stroke-linecap="round" x1="74.6729" y1="41.1422" stroke-width="1.728" stroke="black" x2="68.9365" y2="46.7811"/>
 </g>
 <g partID="854853900">
  <line stroke-linecap="round" x1="55.0865" y1="41.1049" stroke-width="1.728" stroke="black" x2="74.6729" y2="41.1422"/>
 </g>
 <g partID="854868460">
  <line stroke-linecap="round" x1="60.3689" y1="77.2793" stroke-width="1.728" stroke="black" x2="65.896" y2="71.4715"/>
 </g>
 <g partID="854854060">
  <line stroke-linecap="round" x1="55.0859" y1="77.1515" stroke-width="1.728" stroke="black" x2="60.3689" y2="77.2792"/>
 </g>
 <g partID="854854270">
  <line stroke-linecap="round" x1="60.3689" y1="55.4463" stroke-width="1.728" stroke="black" x2="55.0864" y2="55.4854"/>
 </g>
 <g partID="854854220">
  <line stroke-linecap="round" x1="65.2225" y1="55.484" stroke-width="1.728" stroke="black" x2="60.3689" y2="55.4463"/>
 </g>
 <g partID="854864200">
  <line stroke-linecap="round" x1="45.6881" y1="69.7506" stroke-width="2.304" stroke="black" x2="52.8402" y2="62.5984"/>
 </g>
 <g partID="854854830">
  <line stroke-linecap="round" x1="45.6881" y1="77.2793" stroke-width="2.304" stroke="black" x2="45.6881" y2="69.7507"/>
 </g>
 <g partID="854854780">
  <line stroke-linecap="round" x1="52.8402" y1="62.5985" stroke-width="2.304" stroke="black" x2="60.3687" y2="62.5985"/>
 </g>
 <g partID="854853990">
  <line stroke-linecap="round" x1="51.1913" y1="82.5709" stroke-width="2.304" stroke="black" x2="45.6881" y2="77.2792"/>
 </g>
 <g partID="854854120">
  <line stroke-linecap="round" x1="60.3689" y1="62.5985" stroke-width="2.304" stroke="black" x2="64.8229" y2="62.6634"/>
 </g>
 <g partID="854866890">
  <line stroke-linecap="round" x1="67.3905" y1="111.041" stroke-width="1.728" stroke="black" x2="67.3905" y2="108.069"/>
 </g>
 <g partID="854866980">
  <line stroke-linecap="round" x1="65.2225" y1="105.897" stroke-width="1.728" stroke="black" x2="60.3687" y2="105.888"/>
 </g>
 <g partID="854867050">
  <line stroke-linecap="round" x1="60.3689" y1="105.887" stroke-width="1.728" stroke="black" x2="54.4921" y2="100.163"/>
 </g>
 <g partID="854870700">
  <line stroke-linecap="round" x1="96.1297" y1="113.04" stroke-width="1.728" stroke="black" x2="103.282" y2="120.192"/>
 </g>
 <g partID="854867220">
  <line stroke-linecap="round" x1="91.0504" y1="113.083" stroke-width="1.728" stroke="black" x2="96.1297" y2="113.04"/>
 </g>
 <g partID="854867530">
  <line stroke-linecap="round" x1="103.282" y1="120.192" stroke-width="1.728" stroke="black" x2="103.373" y2="132.342"/>
 </g>
 <g partID="854870570">
  <line stroke-linecap="round" x1="96.1297" y1="113.04" stroke-width="1.728" stroke="black" x2="91.0505" y2="113.083"/>
 </g>
 <g partID="854869690">
  <line stroke-linecap="round" x1="96.1297" y1="113.04" stroke-width="1.728" stroke="black" x2="103.282" y2="120.192"/>
 </g>
 <g partID="854869560">
  <line stroke-linecap="round" x1="103.282" y1="120.192" stroke-width="1.728" stroke="black" x2="96.1296" y2="113.04"/>
 </g>
 <g partID="854869430">
  <line stroke-linecap="round" x1="96.1297" y1="84.4313" stroke-width="1.728" stroke="black" x2="96.1297" y2="113.04"/>
 </g>
 <g partID="854871520">
  <line stroke-linecap="round" x1="103.282" y1="62.5985" stroke-width="1.728" stroke="black" x2="103.371" y2="74.8706"/>
 </g>
 <g partID="854871430">
  <line stroke-linecap="round" x1="108.898" y1="57.1443" stroke-width="1.728" stroke="black" x2="103.281" y2="62.5985"/>
 </g>
 <g partID="854871720">
  <line stroke-linecap="round" x1="110.434" y1="91.5833" stroke-width="1.728" stroke="black" x2="106.392" y2="91.5359"/>
 </g>
 <g partID="854871610">
  <line stroke-linecap="round" x1="110.573" y1="72.2599" stroke-width="1.728" stroke="black" x2="110.434" y2="91.5834"/>
 </g>
 <g partID="854875010">
  <line stroke-linecap="round" x1="88.9905" y1="118.241" stroke-width="1.728" stroke="black" x2="88.9905" y2="115.161"/>
 </g>
 <g partID="854845920">
  <line stroke-linecap="round" x1="45.688" y1="142.025" stroke-width="3.456" stroke="black" x2="74.5905" y2="141.677"/>
 </g>
 <g partID="854844470">
  <line stroke-linecap="round" x1="74.5905" y1="141.677" stroke-width="3.456" stroke="black" x2="81.7585" y2="141.677"/>
 </g>
 <g partID="854844110">
  <line stroke-linecap="round" x1="81.7585" y1="141.677" stroke-width="3.456" stroke="black" x2="86.7168" y2="136.894"/>
 </g>
 <g partID="854840130">
  <line stroke-linecap="round" x1="38.5359" y1="134.873" stroke-width="3.456" stroke="black" x2="45.688" y2="142.025"/>
 </g>
 <g partID="854854620">
  <line stroke-linecap="round" x1="50.0945" y1="33.8916" stroke-width="3.456" stroke="black" x2="45.7905" y2="33.8779"/>
 </g>
 <g partID="854840230">
  <line stroke-linecap="round" x1="38.5359" y1="41.1422" stroke-width="3.456" stroke="black" x2="38.5359" y2="134.873"/>
 </g>
 <g partID="854840140">
  <line stroke-linecap="round" x1="52.9905" y1="33.9009" stroke-width="3.456" stroke="black" x2="52.8402" y2="33.99"/>
 </g>
 <g partID="854841060">
  <line stroke-linecap="round" x1="103.262" y1="12.2049" stroke-width="1.728" stroke="black" x2="109.547" y2="24.6375"/>
 </g>
 <g partID="854841070">
  <line stroke-linecap="round" x1="83.8505" y1="12.2917" stroke-width="1.728" stroke="black" x2="103.263" y2="12.2049"/>
 </g>
 <g partID="854847980">
  <line stroke-linecap="round" x1="110.434" y1="91.5833" stroke-width="3.456" stroke="black" x2="110.568" y2="73.0598"/>
 </g>
 <g partID="854845130">
  <line stroke-linecap="round" x1="117.598" y1="98.6689" stroke-width="3.456" stroke="black" x2="110.434" y2="91.5834"/>
 </g>
 <g partID="854844180">
  <line stroke-linecap="round" x1="117.598" y1="134.509" stroke-width="3.456" stroke="black" x2="117.598" y2="98.6689"/>
 </g>
 <g partID="854843740">
  <line stroke-linecap="round" x1="110.43" y1="141.677" stroke-width="3.456" stroke="black" x2="117.598" y2="134.509"/>
 </g>
 <g partID="854843660">
  <line stroke-linecap="round" x1="96.0945" y1="141.677" stroke-width="3.456" stroke="black" x2="110.43" y2="141.677"/>
 </g>
 <g partID="854843670">
  <line stroke-linecap="round" x1="91.2445" y1="136.914" stroke-width="3.456" stroke="black" x2="96.0945" y2="141.677"/>
 </g>
 <g partID="854844250">
  <line stroke-linecap="round" x1="103.262" y1="48.493" stroke-width="1.728" stroke="black" x2="108.885" y2="53.8704"/>
 </g>
 <g partID="854843900">
  <line stroke-linecap="round" x1="103.377" y1="29.0128" stroke-width="1.728" stroke="black" x2="103.262" y2="48.493"/>
 </g>
 <g partID="854846030">
  <line stroke-linecap="round" x1="24.2318" y1="19.6858" stroke-width="1.728" stroke="black" x2="24.2318" y2="55.4463"/>
 </g>
 <g partID="854853500">
  <line stroke-linecap="round" x1="31.3838" y1="12.1572" stroke-width="1.728" stroke="black" x2="24.2317" y2="19.6857"/>
 </g>
 <g partID="854840320">
  <line stroke-linecap="round" x1="50.9305" y1="12.2872" stroke-width="1.728" stroke="black" x2="31.3838" y2="12.1572"/>
 </g>
 <g partID="854840420">
  <line stroke-linecap="round" x1="24.2318" y1="55.4463" stroke-width="1.728" stroke="black" x2="17.0796" y2="62.5984"/>
 </g>
 <g partID="854840370">
  <line stroke-linecap="round" x1="17.0797" y1="62.5984" stroke-width="1.728" stroke="black" x2="11.8863" y2="62.6714"/>
 </g>
 <g partID="854843810">
  <line stroke-linecap="round" x1="96.1297" y1="113.04" stroke-width="3.456" stroke="black" x2="103.282" y2="120.192"/>
 </g>
 <g partID="854844040">
  <line stroke-linecap="round" x1="103.282" y1="120.192" stroke-width="3.456" stroke="black" x2="103.367" y2="131.542"/>
 </g>
 <g partID="854870330">
  <line stroke-linecap="round" x1="88.9769" y1="77.2793" stroke-width="3.456" stroke="black" x2="96.1297" y2="84.4313"/>
 </g>
 <g partID="854869110">
  <line stroke-linecap="round" x1="96.1297" y1="84.4313" stroke-width="3.456" stroke="black" x2="96.1297" y2="113.04"/>
 </g>
 <g partID="854842170">
  <line stroke-linecap="round" x1="88.9265" y1="40.877" stroke-width="3.456" stroke="black" x2="88.9771" y2="77.2793"/>
 </g>
 <g partID="854842100">
  <line stroke-linecap="round" x1="96.0945" y1="33.709" stroke-width="3.456" stroke="black" x2="88.9262" y2="40.877"/>
 </g>
 <g partID="854842030">
  <line stroke-linecap="round" x1="96.148" y1="29.8126" stroke-width="3.456" stroke="black" x2="96.0947" y2="33.709"/>
 </g>
 <g partID="854840530">
  <line stroke-linecap="round" x1="55.8864" y1="41.0829" stroke-width="3.456" stroke="black" x2="88.9265" y2="40.877"/>
 </g>
 <g partID="854840630">
  <line stroke-linecap="round" x1="88.9265" y1="40.877" stroke-width="3.456" stroke="black" x2="96.0945" y2="33.709"/>
 </g>
 <g partID="854841160">
  <line stroke-linecap="round" x1="96.0945" y1="33.709" stroke-width="3.456" stroke="black" x2="96.1477" y2="29.8126"/>
 </g>
 <g partID="854880840">
  <line stroke-linecap="round" x1="65.9338" y1="118.844" stroke-width="1.728" stroke="black" x2="54.4726" y2="107.383"/>
 </g>
 <g partID="854880930">
  <line stroke-linecap="round" x1="67.3905" y1="122.361" stroke-width="1.728" stroke="black" x2="67.3905" y2="125.333"/>
 </g>
 <g partID="854881350">
  <line stroke-linecap="round" x1="74.5866" y1="89.3329" stroke-width="1.728" stroke="black" x2="74.5393" y2="62.6483"/>
 </g>
 <g partID="854881460">
  <line stroke-linecap="round" x1="74.5393" y1="62.6483" stroke-width="1.728" stroke="black" x2="68.9236" y2="57.0337"/>
 </g>
 <g partID="854881570">
  <line stroke-linecap="round" x1="74.5905" y1="93.6689" stroke-width="1.728" stroke="black" x2="74.5905" y2="103.733"/>
 </g>
 <g partID="854881660">
  <line stroke-linecap="round" x1="74.5905" y1="108.069" stroke-width="1.728" stroke="black" x2="74.5905" y2="125.333"/>
 </g>
 <g partID="854882380">
  <line stroke-linecap="round" x1="65.2225" y1="91.5009" stroke-width="1.728" stroke="black" x2="55.0865" y2="91.501"/>
 </g>
 <g partID="854882510">
  <line stroke-linecap="round" x1="67.3905" y1="89.3329" stroke-width="1.728" stroke="black" x2="67.3905" y2="86.3609"/>
 </g>
 <g partID="854883120">
  <line stroke-linecap="round" x1="45.7905" y1="33.8779" stroke-width="3.456" stroke="black" x2="38.536" y2="41.1421"/>
 </g>
 <g partID="854883970">
  <line stroke-linecap="round" x1="96.1681" y1="113.078" stroke-width="1.728" stroke="black" x2="91.0507" y2="113.095"/>
 </g>
 <g partID="854883830">
  <line stroke-linecap="round" x1="96.1681" y1="84.2593" stroke-width="1.728" stroke="black" x2="96.1681" y2="113.078"/>
 </g>
 <g partID="854883840">
  <line stroke-linecap="round" x1="91.0504" y1="84.289" stroke-width="1.728" stroke="black" x2="96.1679" y2="84.2595"/>
 </g>
</svg>
