G04 MADE WITH FRITZING*
G04 WWW.FRITZING.ORG*
G04 DOUBLE SIDED*
G04 HOLES PLATED*
G04 CONTOUR ON CENTER OF CONTOUR VECTOR*
%ASAXBY*%
%FSLAX23Y23*%
%MOIN*%
%OFA0B0*%
%SFA1.0B1.0*%
%ADD10R,1.688300X2.209970X1.672300X2.193970*%
%ADD11C,0.008000*%
%ADD12C,0.004000*%
%ADD13R,0.001000X0.001000*%
%LNSILK0*%
G90*
G70*
G54D11*
X4Y2206D02*
X1684Y2206D01*
X1684Y4D01*
X4Y4D01*
X4Y2206D01*
D02*
G54D12*
X1511Y947D02*
X1511Y1125D01*
D02*
X1361Y947D02*
X1361Y1125D01*
G54D11*
D02*
X1475Y1061D02*
X1436Y1007D01*
D02*
X1436Y1007D02*
X1397Y1061D01*
D02*
X1397Y1061D02*
X1475Y1061D01*
D02*
X1475Y1007D02*
X1397Y1007D01*
G54D13*
X1217Y1193D02*
X1235Y1193D01*
X1268Y1193D02*
X1285Y1193D01*
X1217Y1192D02*
X1236Y1192D01*
X1266Y1192D02*
X1286Y1192D01*
X1217Y1191D02*
X1237Y1191D01*
X1265Y1191D02*
X1287Y1191D01*
X1217Y1190D02*
X1237Y1190D01*
X1264Y1190D02*
X1287Y1190D01*
X1217Y1189D02*
X1237Y1189D01*
X1263Y1189D02*
X1287Y1189D01*
X1217Y1188D02*
X1236Y1188D01*
X1262Y1188D02*
X1286Y1188D01*
X1217Y1187D02*
X1235Y1187D01*
X1262Y1187D02*
X1285Y1187D01*
X1217Y1186D02*
X1223Y1186D01*
X1261Y1186D02*
X1269Y1186D01*
X1274Y1186D02*
X1280Y1186D01*
X1217Y1185D02*
X1223Y1185D01*
X1261Y1185D02*
X1268Y1185D01*
X1274Y1185D02*
X1280Y1185D01*
X1217Y1184D02*
X1223Y1184D01*
X1260Y1184D02*
X1267Y1184D01*
X1274Y1184D02*
X1280Y1184D01*
X1217Y1183D02*
X1223Y1183D01*
X1260Y1183D02*
X1267Y1183D01*
X1274Y1183D02*
X1280Y1183D01*
X1217Y1182D02*
X1223Y1182D01*
X1259Y1182D02*
X1266Y1182D01*
X1274Y1182D02*
X1280Y1182D01*
X1217Y1181D02*
X1223Y1181D01*
X1259Y1181D02*
X1266Y1181D01*
X1274Y1181D02*
X1280Y1181D01*
X1217Y1180D02*
X1223Y1180D01*
X1258Y1180D02*
X1265Y1180D01*
X1274Y1180D02*
X1280Y1180D01*
X1217Y1179D02*
X1223Y1179D01*
X1258Y1179D02*
X1265Y1179D01*
X1274Y1179D02*
X1280Y1179D01*
X1217Y1178D02*
X1223Y1178D01*
X1257Y1178D02*
X1264Y1178D01*
X1274Y1178D02*
X1280Y1178D01*
X1217Y1177D02*
X1223Y1177D01*
X1257Y1177D02*
X1264Y1177D01*
X1274Y1177D02*
X1280Y1177D01*
X1217Y1176D02*
X1223Y1176D01*
X1256Y1176D02*
X1263Y1176D01*
X1274Y1176D02*
X1280Y1176D01*
X1217Y1175D02*
X1223Y1175D01*
X1256Y1175D02*
X1263Y1175D01*
X1274Y1175D02*
X1280Y1175D01*
X1217Y1174D02*
X1223Y1174D01*
X1255Y1174D02*
X1262Y1174D01*
X1274Y1174D02*
X1280Y1174D01*
X1217Y1173D02*
X1223Y1173D01*
X1255Y1173D02*
X1262Y1173D01*
X1274Y1173D02*
X1280Y1173D01*
X1217Y1172D02*
X1223Y1172D01*
X1255Y1172D02*
X1261Y1172D01*
X1274Y1172D02*
X1280Y1172D01*
X1217Y1171D02*
X1223Y1171D01*
X1254Y1171D02*
X1261Y1171D01*
X1274Y1171D02*
X1280Y1171D01*
X1217Y1170D02*
X1223Y1170D01*
X1254Y1170D02*
X1260Y1170D01*
X1274Y1170D02*
X1280Y1170D01*
X1217Y1169D02*
X1223Y1169D01*
X1254Y1169D02*
X1260Y1169D01*
X1274Y1169D02*
X1280Y1169D01*
X1217Y1168D02*
X1223Y1168D01*
X1254Y1168D02*
X1260Y1168D01*
X1274Y1168D02*
X1280Y1168D01*
X1217Y1167D02*
X1223Y1167D01*
X1253Y1167D02*
X1259Y1167D01*
X1274Y1167D02*
X1280Y1167D01*
X1217Y1166D02*
X1223Y1166D01*
X1253Y1166D02*
X1259Y1166D01*
X1274Y1166D02*
X1280Y1166D01*
X1217Y1165D02*
X1223Y1165D01*
X1254Y1165D02*
X1260Y1165D01*
X1274Y1165D02*
X1280Y1165D01*
X1206Y1164D02*
X1207Y1164D01*
X1217Y1164D02*
X1223Y1164D01*
X1254Y1164D02*
X1260Y1164D01*
X1274Y1164D02*
X1280Y1164D01*
X1204Y1163D02*
X1208Y1163D01*
X1217Y1163D02*
X1223Y1163D01*
X1254Y1163D02*
X1260Y1163D01*
X1274Y1163D02*
X1280Y1163D01*
X1204Y1162D02*
X1209Y1162D01*
X1217Y1162D02*
X1223Y1162D01*
X1254Y1162D02*
X1261Y1162D01*
X1274Y1162D02*
X1280Y1162D01*
X1203Y1161D02*
X1209Y1161D01*
X1217Y1161D02*
X1223Y1161D01*
X1255Y1161D02*
X1261Y1161D01*
X1274Y1161D02*
X1280Y1161D01*
X1203Y1160D02*
X1209Y1160D01*
X1217Y1160D02*
X1223Y1160D01*
X1255Y1160D02*
X1262Y1160D01*
X1274Y1160D02*
X1280Y1160D01*
X1203Y1159D02*
X1209Y1159D01*
X1217Y1159D02*
X1223Y1159D01*
X1255Y1159D02*
X1262Y1159D01*
X1274Y1159D02*
X1280Y1159D01*
X1203Y1158D02*
X1209Y1158D01*
X1217Y1158D02*
X1223Y1158D01*
X1256Y1158D02*
X1263Y1158D01*
X1274Y1158D02*
X1280Y1158D01*
X1203Y1157D02*
X1209Y1157D01*
X1217Y1157D02*
X1223Y1157D01*
X1256Y1157D02*
X1263Y1157D01*
X1274Y1157D02*
X1280Y1157D01*
X1203Y1156D02*
X1209Y1156D01*
X1217Y1156D02*
X1223Y1156D01*
X1257Y1156D02*
X1264Y1156D01*
X1274Y1156D02*
X1280Y1156D01*
X1203Y1155D02*
X1209Y1155D01*
X1217Y1155D02*
X1223Y1155D01*
X1257Y1155D02*
X1264Y1155D01*
X1274Y1155D02*
X1280Y1155D01*
X1203Y1154D02*
X1209Y1154D01*
X1217Y1154D02*
X1223Y1154D01*
X1258Y1154D02*
X1265Y1154D01*
X1274Y1154D02*
X1280Y1154D01*
X1203Y1153D02*
X1209Y1153D01*
X1217Y1153D02*
X1223Y1153D01*
X1258Y1153D02*
X1265Y1153D01*
X1274Y1153D02*
X1280Y1153D01*
X1203Y1152D02*
X1209Y1152D01*
X1217Y1152D02*
X1223Y1152D01*
X1259Y1152D02*
X1266Y1152D01*
X1274Y1152D02*
X1280Y1152D01*
X1203Y1151D02*
X1209Y1151D01*
X1217Y1151D02*
X1223Y1151D01*
X1259Y1151D02*
X1266Y1151D01*
X1274Y1151D02*
X1280Y1151D01*
X1203Y1150D02*
X1209Y1150D01*
X1217Y1150D02*
X1223Y1150D01*
X1260Y1150D02*
X1267Y1150D01*
X1274Y1150D02*
X1280Y1150D01*
X1203Y1149D02*
X1209Y1149D01*
X1217Y1149D02*
X1223Y1149D01*
X1260Y1149D02*
X1267Y1149D01*
X1274Y1149D02*
X1280Y1149D01*
X1203Y1148D02*
X1209Y1148D01*
X1217Y1148D02*
X1223Y1148D01*
X1261Y1148D02*
X1268Y1148D01*
X1274Y1148D02*
X1280Y1148D01*
X1203Y1147D02*
X1209Y1147D01*
X1217Y1147D02*
X1223Y1147D01*
X1261Y1147D02*
X1269Y1147D01*
X1274Y1147D02*
X1280Y1147D01*
X1203Y1146D02*
X1235Y1146D01*
X1262Y1146D02*
X1285Y1146D01*
X1203Y1145D02*
X1236Y1145D01*
X1262Y1145D02*
X1286Y1145D01*
X1203Y1144D02*
X1237Y1144D01*
X1263Y1144D02*
X1287Y1144D01*
X1203Y1143D02*
X1237Y1143D01*
X1264Y1143D02*
X1287Y1143D01*
X1204Y1142D02*
X1237Y1142D01*
X1265Y1142D02*
X1287Y1142D01*
X1204Y1141D02*
X1236Y1141D01*
X1266Y1141D02*
X1286Y1141D01*
X1205Y1140D02*
X1235Y1140D01*
X1268Y1140D02*
X1285Y1140D01*
D02*
G04 End of Silk0*
M02*