; NON-PLATED HOLES START AT T1
; THROUGH (PLATED) HOLES START AT T100
M48
INCH
T100C0.042000
T101C0.038000
T102C0.036000
T103C0.035000
T104C0.043307
%
T100
X015359Y018391
X013359Y018391
X014359Y018391
T101
X009359Y014391
X009359Y009391
X010359Y004391
X009359Y013391
X009359Y012391
X010359Y009391
X009359Y007391
X009359Y015391
X009359Y004391
X010359Y007391
T102
X001359Y005391
X007359Y014391
X007359Y015391
X001359Y012391
X007359Y005391
X001359Y017391
X007359Y017391
X001359Y006391
X007359Y007391
X007359Y016391
X001359Y003391
X007359Y009391
X007359Y012391
X007359Y010391
X001359Y007391
X007359Y013391
X001359Y008391
X007359Y008391
X001359Y014391
X001359Y009391
X007359Y011391
X007359Y004391
X007359Y006391
X001359Y011391
X001359Y010391
X001359Y013391
X001359Y016391
X007359Y003391
X001359Y015391
X001359Y004391
T103
X009359Y005391
X011359Y020391
X007359Y020391
X012359Y010391
X012359Y005391
X012359Y006391
X009359Y010391
X009359Y006391
T104
X015359Y012391
X014359Y003391
X015359Y014391
X012359Y003391
T00
M30
