G04 MADE WITH FRITZING*
G04 WWW.FRITZING.ORG*
G04 DOUBLE SIDED*
G04 HOLES PLATED*
G04 CONTOUR ON CENTER OF CONTOUR VECTOR*
%ASAXBY*%
%FSLAX23Y23*%
%MOIN*%
%OFA0B0*%
%SFA1.0B1.0*%
%ADD10C,0.075000*%
%ADD11C,0.082000*%
%ADD12C,0.083307*%
%ADD13C,0.078000*%
%ADD14C,0.070000*%
%ADD15R,0.082000X0.082000*%
%ADD16R,0.069972X0.070000*%
%ADD17C,0.024000*%
%ADD18C,0.032000*%
%ADD19C,0.048000*%
%LNCOPPER0*%
G90*
G70*
G54D10*
X1236Y539D03*
X936Y539D03*
X1236Y1039D03*
X936Y1039D03*
X1236Y639D03*
X936Y639D03*
X736Y2039D03*
X1136Y2039D03*
G54D11*
X1536Y1839D03*
X1436Y1839D03*
X1336Y1839D03*
G54D12*
X1536Y1239D03*
X1536Y1439D03*
X1236Y339D03*
X1436Y339D03*
G54D13*
X1036Y439D03*
X936Y439D03*
X1036Y939D03*
X936Y939D03*
X1036Y739D03*
X936Y739D03*
X936Y1539D03*
X936Y1439D03*
X936Y1339D03*
X936Y1239D03*
G54D14*
X136Y1739D03*
X136Y1639D03*
X136Y1539D03*
X136Y1439D03*
X136Y1339D03*
X136Y1239D03*
X136Y1139D03*
X136Y1039D03*
X136Y939D03*
X136Y839D03*
X136Y739D03*
X136Y639D03*
X136Y539D03*
X136Y439D03*
X136Y339D03*
X736Y1739D03*
X736Y1639D03*
X736Y1539D03*
X736Y1439D03*
X736Y1339D03*
X736Y1239D03*
X736Y1139D03*
X736Y1039D03*
X736Y939D03*
X736Y839D03*
X736Y739D03*
X736Y639D03*
X736Y539D03*
X736Y439D03*
X736Y339D03*
G54D15*
X1536Y1839D03*
G54D16*
X136Y1739D03*
G54D17*
X1037Y1639D02*
X957Y1560D01*
D02*
X765Y1639D02*
X1037Y1639D01*
D02*
X838Y1137D02*
X915Y1217D01*
D02*
X765Y1138D02*
X838Y1137D01*
D02*
X838Y1440D02*
X765Y1439D01*
D02*
X906Y1439D02*
X838Y1440D01*
G54D18*
D02*
X635Y1241D02*
X734Y1341D01*
D02*
X635Y1137D02*
X635Y1241D01*
D02*
X734Y1341D02*
X838Y1341D01*
D02*
X711Y1063D02*
X635Y1137D01*
D02*
X838Y1341D02*
X900Y1340D01*
G54D17*
D02*
X936Y668D02*
X936Y709D01*
D02*
X906Y739D02*
X838Y739D01*
D02*
X838Y739D02*
X757Y819D01*
D02*
X1335Y640D02*
X1434Y541D01*
D02*
X1265Y639D02*
X1335Y640D01*
D02*
X1434Y541D02*
X1436Y372D01*
D02*
X1335Y640D02*
X1265Y639D01*
D02*
X1335Y640D02*
X1434Y541D01*
D02*
X1434Y541D02*
X1335Y640D01*
D02*
X1335Y1037D02*
X1335Y640D01*
D02*
X1434Y1341D02*
X1436Y1170D01*
D02*
X1512Y1416D02*
X1434Y1341D01*
D02*
X1534Y938D02*
X1478Y939D01*
D02*
X1536Y1206D02*
X1534Y938D01*
D02*
X1236Y568D02*
X1236Y611D01*
G54D19*
D02*
X635Y237D02*
X1036Y242D01*
D02*
X1036Y242D02*
X1136Y242D01*
D02*
X1136Y242D02*
X1204Y309D01*
D02*
X535Y337D02*
X635Y237D01*
D02*
X696Y1739D02*
X636Y1739D01*
D02*
X535Y1639D02*
X535Y337D01*
D02*
X736Y1739D02*
X734Y1738D01*
G54D17*
D02*
X1434Y2040D02*
X1521Y1868D01*
D02*
X1165Y2039D02*
X1434Y2040D01*
G54D19*
D02*
X1534Y938D02*
X1536Y1195D01*
D02*
X1633Y840D02*
X1534Y938D01*
D02*
X1633Y342D02*
X1633Y840D01*
D02*
X1534Y242D02*
X1633Y342D01*
D02*
X1335Y242D02*
X1534Y242D01*
D02*
X1267Y308D02*
X1335Y242D01*
G54D17*
D02*
X1434Y1536D02*
X1512Y1462D01*
D02*
X1436Y1807D02*
X1434Y1536D01*
D02*
X337Y1937D02*
X337Y1440D01*
D02*
X436Y2041D02*
X337Y1937D01*
D02*
X707Y2039D02*
X436Y2041D01*
D02*
X337Y1440D02*
X237Y1341D01*
D02*
X237Y1341D02*
X165Y1340D01*
G54D19*
D02*
X1335Y640D02*
X1434Y541D01*
D02*
X1434Y541D02*
X1436Y383D01*
D02*
X1236Y1137D02*
X1335Y1037D01*
D02*
X1335Y1037D02*
X1335Y640D01*
D02*
X1235Y1642D02*
X1236Y1137D01*
D02*
X1335Y1742D02*
X1235Y1642D01*
D02*
X1335Y1796D02*
X1335Y1742D01*
D02*
X776Y1639D02*
X1235Y1642D01*
D02*
X1235Y1642D02*
X1335Y1742D01*
D02*
X1335Y1742D02*
X1335Y1796D01*
G54D17*
D02*
X916Y559D02*
X757Y719D01*
D02*
X936Y511D02*
X936Y469D01*
D02*
X1036Y969D02*
X1035Y1340D01*
D02*
X1035Y1340D02*
X957Y1418D01*
D02*
X1036Y909D02*
X1036Y769D01*
D02*
X1036Y709D02*
X1036Y469D01*
D02*
X906Y939D02*
X765Y939D01*
D02*
X936Y969D02*
X936Y1011D01*
G54D19*
D02*
X636Y1739D02*
X535Y1639D01*
G54D17*
D02*
X1336Y639D02*
X1265Y639D01*
D02*
X1336Y1040D02*
X1336Y639D01*
D02*
X1265Y1039D02*
X1336Y1040D01*
G36*
X1483Y896D02*
X1389Y896D01*
X1389Y982D01*
X1483Y982D01*
X1483Y896D01*
G37*
D02*
G36*
X1483Y1089D02*
X1389Y1089D01*
X1389Y1176D01*
X1483Y1176D01*
X1483Y1089D01*
G37*
D02*
G04 End of Copper0*
M02*