G04 MADE WITH FRITZING*
G04 WWW.FRITZING.ORG*
G04 DOUBLE SIDED*
G04 HOLES PLATED*
G04 CONTOUR ON CENTER OF CONTOUR VECTOR*
%ASAXBY*%
%FSLAX23Y23*%
%MOIN*%
%OFA0B0*%
%SFA1.0B1.0*%
%ADD10C,0.085000*%
%ADD11C,0.092000*%
%ADD12C,0.093307*%
%ADD13C,0.088000*%
%ADD14C,0.080000*%
%ADD15R,0.092000X0.092000*%
%ADD16R,0.079972X0.080000*%
%LNMASK1*%
G90*
G70*
G54D10*
X1236Y539D03*
X936Y539D03*
X1236Y1039D03*
X936Y1039D03*
X1236Y639D03*
X936Y639D03*
X736Y2039D03*
X1136Y2039D03*
G54D11*
X1536Y1839D03*
X1436Y1839D03*
X1336Y1839D03*
G54D12*
X1536Y1239D03*
X1536Y1439D03*
X1236Y339D03*
X1436Y339D03*
G54D13*
X1036Y439D03*
X936Y439D03*
X1036Y939D03*
X936Y939D03*
X1036Y739D03*
X936Y739D03*
X936Y1539D03*
X936Y1439D03*
X936Y1339D03*
X936Y1239D03*
G54D14*
X136Y1739D03*
X136Y1639D03*
X136Y1539D03*
X136Y1439D03*
X136Y1339D03*
X136Y1239D03*
X136Y1139D03*
X136Y1039D03*
X136Y939D03*
X136Y839D03*
X136Y739D03*
X136Y639D03*
X136Y539D03*
X136Y439D03*
X136Y339D03*
X736Y1739D03*
X736Y1639D03*
X736Y1539D03*
X736Y1439D03*
X736Y1339D03*
X736Y1239D03*
X736Y1139D03*
X736Y1039D03*
X736Y939D03*
X736Y839D03*
X736Y739D03*
X736Y639D03*
X736Y539D03*
X736Y439D03*
X736Y339D03*
G54D15*
X1536Y1839D03*
G54D16*
X136Y1739D03*
G04 End of Mask1*
M02*